<mxfile host="app.diagrams.net" agent="Mozilla/5.0 (Windows NT 10.0; Win64; x64) AppleWebKit/537.36 (KHTML, like Gecko) Chrome/126.0.0.0 Safari/537.36" version="24.7.6">
  <diagram name="Page-1" id="3arRjD8YSTsVU7wlHwij">
    <mxGraphModel dx="3000" dy="1640" grid="1" gridSize="10" guides="1" tooltips="1" connect="1" arrows="1" fold="1" page="1" pageScale="1" pageWidth="850" pageHeight="1100" math="0" shadow="0">
      <root>
        <mxCell id="0" />
        <mxCell id="1" parent="0" />
        <mxCell id="v6SfGA7gcKF911zTjWvT-36" value="" style="strokeWidth=2;html=1;shape=mxgraph.flowchart.terminator;whiteSpace=wrap;" parent="1" vertex="1">
          <mxGeometry x="275" y="175" width="280" height="40" as="geometry" />
        </mxCell>
        <mxCell id="v6SfGA7gcKF911zTjWvT-37" value="" style="strokeWidth=2;html=1;shape=mxgraph.flowchart.terminator;whiteSpace=wrap;" parent="1" vertex="1">
          <mxGeometry x="275" y="835" width="275" height="40" as="geometry" />
        </mxCell>
        <mxCell id="v6SfGA7gcKF911zTjWvT-38" value="" style="strokeWidth=2;html=1;shape=mxgraph.flowchart.terminator;whiteSpace=wrap;" parent="1" vertex="1">
          <mxGeometry x="275" y="775" width="275" height="40" as="geometry" />
        </mxCell>
        <mxCell id="v6SfGA7gcKF911zTjWvT-39" value="" style="strokeWidth=2;html=1;shape=mxgraph.flowchart.terminator;whiteSpace=wrap;" parent="1" vertex="1">
          <mxGeometry x="275" y="715" width="275" height="40" as="geometry" />
        </mxCell>
        <mxCell id="v6SfGA7gcKF911zTjWvT-40" value="" style="strokeWidth=2;html=1;shape=mxgraph.flowchart.terminator;whiteSpace=wrap;" parent="1" vertex="1">
          <mxGeometry x="275" y="655" width="280" height="40" as="geometry" />
        </mxCell>
        <mxCell id="v6SfGA7gcKF911zTjWvT-41" value="" style="strokeWidth=2;html=1;shape=mxgraph.flowchart.terminator;whiteSpace=wrap;" parent="1" vertex="1">
          <mxGeometry x="275" y="595" width="280" height="40" as="geometry" />
        </mxCell>
        <mxCell id="v6SfGA7gcKF911zTjWvT-42" value="" style="strokeWidth=2;html=1;shape=mxgraph.flowchart.terminator;whiteSpace=wrap;" parent="1" vertex="1">
          <mxGeometry x="275" y="535" width="280" height="40" as="geometry" />
        </mxCell>
        <mxCell id="v6SfGA7gcKF911zTjWvT-43" value="" style="strokeWidth=2;html=1;shape=mxgraph.flowchart.terminator;whiteSpace=wrap;" parent="1" vertex="1">
          <mxGeometry x="275" y="475" width="280" height="40" as="geometry" />
        </mxCell>
        <mxCell id="v6SfGA7gcKF911zTjWvT-44" value="" style="strokeWidth=2;html=1;shape=mxgraph.flowchart.terminator;whiteSpace=wrap;" parent="1" vertex="1">
          <mxGeometry x="275" y="415" width="280" height="40" as="geometry" />
        </mxCell>
        <mxCell id="v6SfGA7gcKF911zTjWvT-45" value="" style="strokeWidth=2;html=1;shape=mxgraph.flowchart.terminator;whiteSpace=wrap;" parent="1" vertex="1">
          <mxGeometry x="275" y="355" width="280" height="40" as="geometry" />
        </mxCell>
        <mxCell id="v6SfGA7gcKF911zTjWvT-46" value="" style="strokeWidth=2;html=1;shape=mxgraph.flowchart.terminator;whiteSpace=wrap;" parent="1" vertex="1">
          <mxGeometry x="275" y="295" width="280" height="40" as="geometry" />
        </mxCell>
        <mxCell id="v6SfGA7gcKF911zTjWvT-47" value="" style="strokeWidth=2;html=1;shape=mxgraph.flowchart.terminator;whiteSpace=wrap;" parent="1" vertex="1">
          <mxGeometry x="275" y="235" width="280" height="40" as="geometry" />
        </mxCell>
        <mxCell id="v6SfGA7gcKF911zTjWvT-48" value="&lt;font style=&quot;font-size: 18px;&quot;&gt;Student Enrollment&lt;/font&gt;" style="text;strokeColor=none;align=center;fillColor=none;html=1;verticalAlign=middle;whiteSpace=wrap;rounded=0;" parent="1" vertex="1">
          <mxGeometry x="280" y="180" width="280" height="30" as="geometry" />
        </mxCell>
        <mxCell id="v6SfGA7gcKF911zTjWvT-50" value="&lt;font style=&quot;font-size: 18px;&quot;&gt;Generate Reports&lt;/font&gt;" style="text;strokeColor=none;align=center;fillColor=none;html=1;verticalAlign=middle;whiteSpace=wrap;rounded=0;" parent="1" vertex="1">
          <mxGeometry x="272.5" y="720" width="280" height="30" as="geometry" />
        </mxCell>
        <mxCell id="v6SfGA7gcKF911zTjWvT-51" value="&lt;font style=&quot;font-size: 18px;&quot;&gt;Access Academic calender&lt;/font&gt;" style="text;strokeColor=none;align=center;fillColor=none;html=1;verticalAlign=middle;whiteSpace=wrap;rounded=0;" parent="1" vertex="1">
          <mxGeometry x="272.5" y="660" width="280" height="30" as="geometry" />
        </mxCell>
        <mxCell id="v6SfGA7gcKF911zTjWvT-52" value="&lt;font style=&quot;font-size: 18px;&quot;&gt;View Time-Table&lt;/font&gt;" style="text;strokeColor=none;align=center;fillColor=none;html=1;verticalAlign=middle;whiteSpace=wrap;rounded=0;" parent="1" vertex="1">
          <mxGeometry x="272.5" y="600" width="280" height="30" as="geometry" />
        </mxCell>
        <mxCell id="v6SfGA7gcKF911zTjWvT-53" value="&lt;font style=&quot;font-size: 18px;&quot;&gt;Manage Student Fees&lt;/font&gt;" style="text;strokeColor=none;align=center;fillColor=none;html=1;verticalAlign=middle;whiteSpace=wrap;rounded=0;" parent="1" vertex="1">
          <mxGeometry x="272.5" y="540" width="280" height="30" as="geometry" />
        </mxCell>
        <mxCell id="v6SfGA7gcKF911zTjWvT-54" value="&lt;font style=&quot;font-size: 18px;&quot;&gt;Check Assignment&amp;nbsp;&lt;/font&gt;" style="text;strokeColor=none;align=center;fillColor=none;html=1;verticalAlign=middle;whiteSpace=wrap;rounded=0;" parent="1" vertex="1">
          <mxGeometry x="275" y="480" width="280" height="30" as="geometry" />
        </mxCell>
        <mxCell id="v6SfGA7gcKF911zTjWvT-55" value="&lt;font style=&quot;font-size: 18px;&quot;&gt;Upload Assignment&lt;/font&gt;" style="text;strokeColor=none;align=center;fillColor=none;html=1;verticalAlign=middle;whiteSpace=wrap;rounded=0;" parent="1" vertex="1">
          <mxGeometry x="275" y="420" width="280" height="30" as="geometry" />
        </mxCell>
        <mxCell id="v6SfGA7gcKF911zTjWvT-56" value="&lt;span style=&quot;font-size: 18px;&quot;&gt;Fill Student Attendence&lt;/span&gt;" style="text;strokeColor=none;align=center;fillColor=none;html=1;verticalAlign=middle;whiteSpace=wrap;rounded=0;" parent="1" vertex="1">
          <mxGeometry x="275" y="360" width="280" height="30" as="geometry" />
        </mxCell>
        <mxCell id="v6SfGA7gcKF911zTjWvT-57" value="&lt;span style=&quot;font-size: 18px;&quot;&gt;Fill Staff Attendence&lt;/span&gt;" style="text;strokeColor=none;align=center;fillColor=none;html=1;verticalAlign=middle;whiteSpace=wrap;rounded=0;" parent="1" vertex="1">
          <mxGeometry x="275" y="300" width="280" height="30" as="geometry" />
        </mxCell>
        <mxCell id="v6SfGA7gcKF911zTjWvT-58" value="&lt;font style=&quot;font-size: 18px;&quot;&gt;Recruiment and Hiring&lt;/font&gt;" style="text;strokeColor=none;align=center;fillColor=none;html=1;verticalAlign=middle;whiteSpace=wrap;rounded=0;" parent="1" vertex="1">
          <mxGeometry x="275" y="240" width="280" height="30" as="geometry" />
        </mxCell>
        <mxCell id="v6SfGA7gcKF911zTjWvT-59" value="&lt;font style=&quot;font-size: 18px;&quot;&gt;Manafe Staff Salary&lt;/font&gt;" style="text;strokeColor=none;align=center;fillColor=none;html=1;verticalAlign=middle;whiteSpace=wrap;rounded=0;" parent="1" vertex="1">
          <mxGeometry x="270" y="840" width="280" height="30" as="geometry" />
        </mxCell>
        <mxCell id="v6SfGA7gcKF911zTjWvT-60" value="&lt;font style=&quot;font-size: 18px;&quot;&gt;Exam Paper Creation&lt;/font&gt;" style="text;strokeColor=none;align=center;fillColor=none;html=1;verticalAlign=middle;whiteSpace=wrap;rounded=0;" parent="1" vertex="1">
          <mxGeometry x="272.5" y="780" width="280" height="30" as="geometry" />
        </mxCell>
        <mxCell id="v6SfGA7gcKF911zTjWvT-61" value="Admin" style="shape=umlActor;verticalLabelPosition=bottom;verticalAlign=top;html=1;outlineConnect=0;" parent="1" vertex="1">
          <mxGeometry x="95" y="315" width="30" height="60" as="geometry" />
        </mxCell>
        <object label="Accountant" id="v6SfGA7gcKF911zTjWvT-63">
          <mxCell style="shape=umlActor;verticalLabelPosition=bottom;verticalAlign=top;html=1;outlineConnect=0;" parent="1" vertex="1">
            <mxGeometry x="95" y="625" width="30" height="60" as="geometry" />
          </mxCell>
        </object>
        <mxCell id="v6SfGA7gcKF911zTjWvT-64" value="Student" style="shape=umlActor;verticalLabelPosition=bottom;verticalAlign=top;html=1;outlineConnect=0;" parent="1" vertex="1">
          <mxGeometry x="665" y="235" width="30" height="60" as="geometry" />
        </mxCell>
        <mxCell id="v6SfGA7gcKF911zTjWvT-65" value="Staff" style="shape=umlActor;verticalLabelPosition=bottom;verticalAlign=top;html=1;outlineConnect=0;" parent="1" vertex="1">
          <mxGeometry x="675" y="720" width="30" height="60" as="geometry" />
        </mxCell>
        <mxCell id="v6SfGA7gcKF911zTjWvT-70" value="" style="edgeStyle=none;orthogonalLoop=1;jettySize=auto;html=1;rounded=0;exitX=1;exitY=0.3333333333333333;exitDx=0;exitDy=0;exitPerimeter=0;entryX=0;entryY=0.5;entryDx=0;entryDy=0;entryPerimeter=0;" parent="1" source="v6SfGA7gcKF911zTjWvT-61" target="v6SfGA7gcKF911zTjWvT-36" edge="1">
          <mxGeometry width="80" relative="1" as="geometry">
            <mxPoint x="195" y="145" as="sourcePoint" />
            <mxPoint x="595" y="145" as="targetPoint" />
            <Array as="points" />
          </mxGeometry>
        </mxCell>
        <mxCell id="v6SfGA7gcKF911zTjWvT-71" value="" style="edgeStyle=none;orthogonalLoop=1;jettySize=auto;html=1;rounded=0;entryX=0;entryY=0.5;entryDx=0;entryDy=0;" parent="1" target="v6SfGA7gcKF911zTjWvT-58" edge="1">
          <mxGeometry width="80" relative="1" as="geometry">
            <mxPoint x="125" y="335" as="sourcePoint" />
            <mxPoint x="285" y="205" as="targetPoint" />
            <Array as="points" />
          </mxGeometry>
        </mxCell>
        <mxCell id="v6SfGA7gcKF911zTjWvT-72" value="" style="edgeStyle=none;orthogonalLoop=1;jettySize=auto;html=1;rounded=0;exitX=1;exitY=0.3333333333333333;exitDx=0;exitDy=0;exitPerimeter=0;entryX=0;entryY=0.5;entryDx=0;entryDy=0;" parent="1" source="v6SfGA7gcKF911zTjWvT-61" target="v6SfGA7gcKF911zTjWvT-57" edge="1">
          <mxGeometry width="80" relative="1" as="geometry">
            <mxPoint x="145" y="355" as="sourcePoint" />
            <mxPoint x="295" y="215" as="targetPoint" />
            <Array as="points" />
          </mxGeometry>
        </mxCell>
        <mxCell id="v6SfGA7gcKF911zTjWvT-73" value="" style="edgeStyle=none;orthogonalLoop=1;jettySize=auto;html=1;rounded=0;exitX=1;exitY=0.3333333333333333;exitDx=0;exitDy=0;exitPerimeter=0;entryX=0;entryY=0.5;entryDx=0;entryDy=0;" parent="1" source="v6SfGA7gcKF911zTjWvT-63" target="v6SfGA7gcKF911zTjWvT-53" edge="1">
          <mxGeometry width="80" relative="1" as="geometry">
            <mxPoint x="155" y="365" as="sourcePoint" />
            <mxPoint x="305" y="225" as="targetPoint" />
            <Array as="points" />
          </mxGeometry>
        </mxCell>
        <mxCell id="v6SfGA7gcKF911zTjWvT-74" value="" style="edgeStyle=none;orthogonalLoop=1;jettySize=auto;html=1;rounded=0;entryX=0;entryY=0.25;entryDx=0;entryDy=0;exitX=1;exitY=0.3333333333333333;exitDx=0;exitDy=0;exitPerimeter=0;" parent="1" source="v6SfGA7gcKF911zTjWvT-63" target="v6SfGA7gcKF911zTjWvT-59" edge="1">
          <mxGeometry width="80" relative="1" as="geometry">
            <mxPoint x="135" y="655" as="sourcePoint" />
            <mxPoint x="283" y="565" as="targetPoint" />
            <Array as="points" />
          </mxGeometry>
        </mxCell>
        <mxCell id="v6SfGA7gcKF911zTjWvT-75" value="" style="edgeStyle=none;orthogonalLoop=1;jettySize=auto;html=1;rounded=0;exitX=0;exitY=0.3333333333333333;exitDx=0;exitDy=0;exitPerimeter=0;entryX=0.75;entryY=0;entryDx=0;entryDy=0;" parent="1" source="v6SfGA7gcKF911zTjWvT-64" target="v6SfGA7gcKF911zTjWvT-55" edge="1">
          <mxGeometry width="80" relative="1" as="geometry">
            <mxPoint x="595" y="465" as="sourcePoint" />
            <mxPoint x="675" y="465" as="targetPoint" />
            <Array as="points" />
          </mxGeometry>
        </mxCell>
        <mxCell id="v6SfGA7gcKF911zTjWvT-76" value="" style="edgeStyle=none;orthogonalLoop=1;jettySize=auto;html=1;rounded=0;entryX=0.711;entryY=-0.127;entryDx=0;entryDy=0;entryPerimeter=0;" parent="1" target="v6SfGA7gcKF911zTjWvT-52" edge="1">
          <mxGeometry width="80" relative="1" as="geometry">
            <mxPoint x="665" y="255" as="sourcePoint" />
            <mxPoint x="495" y="430" as="targetPoint" />
            <Array as="points" />
          </mxGeometry>
        </mxCell>
        <mxCell id="v6SfGA7gcKF911zTjWvT-79" value="" style="strokeWidth=2;html=1;shape=mxgraph.flowchart.annotation_2;align=left;labelPosition=right;pointerEvents=1;rotation=90;" parent="1" vertex="1">
          <mxGeometry x="665" y="780" width="50" height="100" as="geometry" />
        </mxCell>
        <mxCell id="v6SfGA7gcKF911zTjWvT-80" value="Principal" style="shape=umlActor;verticalLabelPosition=bottom;verticalAlign=top;html=1;outlineConnect=0;" parent="1" vertex="1">
          <mxGeometry x="725" y="865" width="30" height="60" as="geometry" />
        </mxCell>
        <mxCell id="v6SfGA7gcKF911zTjWvT-81" value="Teacher" style="shape=umlActor;verticalLabelPosition=bottom;verticalAlign=top;html=1;outlineConnect=0;" parent="1" vertex="1">
          <mxGeometry x="625" y="865" width="30" height="60" as="geometry" />
        </mxCell>
        <mxCell id="v6SfGA7gcKF911zTjWvT-82" value="" style="edgeStyle=none;orthogonalLoop=1;jettySize=auto;html=1;rounded=0;entryX=0.84;entryY=-0.016;entryDx=0;entryDy=0;entryPerimeter=0;exitX=0;exitY=0.3333333333333333;exitDx=0;exitDy=0;exitPerimeter=0;" parent="1" source="v6SfGA7gcKF911zTjWvT-64" target="v6SfGA7gcKF911zTjWvT-51" edge="1">
          <mxGeometry width="80" relative="1" as="geometry">
            <mxPoint x="675" y="265" as="sourcePoint" />
            <mxPoint x="482" y="606" as="targetPoint" />
            <Array as="points" />
          </mxGeometry>
        </mxCell>
        <mxCell id="v6SfGA7gcKF911zTjWvT-83" value="" style="edgeStyle=none;orthogonalLoop=1;jettySize=auto;html=1;rounded=0;entryX=1;entryY=0.5;entryDx=0;entryDy=0;exitX=0;exitY=0.3333333333333333;exitDx=0;exitDy=0;exitPerimeter=0;" parent="1" source="v6SfGA7gcKF911zTjWvT-65" target="v6SfGA7gcKF911zTjWvT-50" edge="1">
          <mxGeometry width="80" relative="1" as="geometry">
            <mxPoint x="635" y="625" as="sourcePoint" />
            <mxPoint x="518" y="670" as="targetPoint" />
            <Array as="points" />
          </mxGeometry>
        </mxCell>
        <mxCell id="v6SfGA7gcKF911zTjWvT-84" value="" style="edgeStyle=none;orthogonalLoop=1;jettySize=auto;html=1;rounded=0;exitX=0;exitY=0.3333333333333333;exitDx=0;exitDy=0;exitPerimeter=0;" parent="1" source="v6SfGA7gcKF911zTjWvT-65" target="v6SfGA7gcKF911zTjWvT-60" edge="1">
          <mxGeometry width="80" relative="1" as="geometry">
            <mxPoint x="685" y="750" as="sourcePoint" />
            <mxPoint x="563" y="745" as="targetPoint" />
            <Array as="points" />
          </mxGeometry>
        </mxCell>
        <mxCell id="v6SfGA7gcKF911zTjWvT-85" value="" style="edgeStyle=none;orthogonalLoop=1;jettySize=auto;html=1;rounded=0;exitX=0;exitY=0.3333333333333333;exitDx=0;exitDy=0;exitPerimeter=0;entryX=0.802;entryY=1.042;entryDx=0;entryDy=0;entryPerimeter=0;" parent="1" source="v6SfGA7gcKF911zTjWvT-65" target="v6SfGA7gcKF911zTjWvT-43" edge="1">
          <mxGeometry width="80" relative="1" as="geometry">
            <mxPoint x="675" y="745" as="sourcePoint" />
            <mxPoint x="575" y="595" as="targetPoint" />
            <Array as="points" />
          </mxGeometry>
        </mxCell>
        <mxCell id="Cjr20IhwPr7gFKhWO-ZR-3" value="" style="endArrow=none;html=1;rounded=0;" edge="1" parent="1">
          <mxGeometry width="50" height="50" relative="1" as="geometry">
            <mxPoint y="80" as="sourcePoint" />
            <mxPoint x="840" y="80" as="targetPoint" />
          </mxGeometry>
        </mxCell>
        <mxCell id="Cjr20IhwPr7gFKhWO-ZR-4" value="" style="endArrow=none;html=1;rounded=0;" edge="1" parent="1">
          <mxGeometry width="50" height="50" relative="1" as="geometry">
            <mxPoint y="1040" as="sourcePoint" />
            <mxPoint x="840" y="1040" as="targetPoint" />
          </mxGeometry>
        </mxCell>
        <mxCell id="Cjr20IhwPr7gFKhWO-ZR-5" value="" style="endArrow=none;html=1;rounded=0;" edge="1" parent="1">
          <mxGeometry width="50" height="50" relative="1" as="geometry">
            <mxPoint x="840" y="80" as="sourcePoint" />
            <mxPoint x="840" y="1040" as="targetPoint" />
          </mxGeometry>
        </mxCell>
        <mxCell id="Cjr20IhwPr7gFKhWO-ZR-6" value="" style="endArrow=none;html=1;rounded=0;" edge="1" parent="1">
          <mxGeometry width="50" height="50" relative="1" as="geometry">
            <mxPoint y="80" as="sourcePoint" />
            <mxPoint y="1040" as="targetPoint" />
          </mxGeometry>
        </mxCell>
      </root>
    </mxGraphModel>
  </diagram>
</mxfile>
